<svg xmlns="http://www.w3.org/2000/svg" xmlns:xlink="http://www.w3.org/1999/xlink" id="Layer_1" x="0" y="0" version="1.1" viewBox="0 0 1534 134" style="enable-background:new 0 0 1534 134" xml:space="preserve"><style type="text/css">.st0{fill:#fff}.st1{fill:url(#SVGID_1_)}.st2{fill:url(#SVGID_2_)}.st3{fill:url(#SVGID_3_)}.st4{fill:url(#SVGID_4_)}.st5{fill:url(#SVGID_5_)}.st6{fill:url(#SVGID_6_)}.st7{fill:url(#SVGID_7_)}</style><g><path d="M6.52,6.15h81.26v26.52H39.84v21.08H75.2v25.33H39.84V126H6.52V6.15z" class="st0"/><path d="M153.81,6.15c29.75,0,44.71,17,44.71,38.42c0,15.64-8.5,29.24-26.35,34.68L199.2,126h-37.23l-23.8-44.2h-3.57 V126h-33.32V6.15H153.81z M151.09,34.03H134.6v24.99h16.49c9.01,0,13.6-4.42,13.6-12.58C164.69,38.96,160.1,34.03,151.09,34.03z" class="st0"/><path d="M289.69,32.84h-43.35v19.55h38.25v25.33h-38.25v21.59h43.35V126h-76.67V6.15h76.67V32.84z" class="st0"/><path d="M380.82,32.84h-43.35v19.55h38.25v25.33h-38.25v21.59h43.35V126h-76.67V6.15h76.67V32.84z" class="st0"/><path d="M394.27,6.15h33.15v69.53c0,12.41,5.61,20.23,18.19,20.23s18.53-7.82,18.53-20.23V6.15h33.32v69.53 c0,34.17-23.8,51.51-52.53,51.51c-28.9,0-50.66-17.34-50.66-51.51V6.15z" class="st0"/><path d="M557.94,127.19c-26.69,0-47.43-12.75-48.79-38.42h35.53c0.68,9.01,5.95,12.07,12.07,12.07 c5.95,0,10.54-3.06,10.54-8.67c-0.17-19.21-58.31-10.2-57.8-51.85c0-23.46,19.55-36.04,44.88-36.04 c27.54,0,45.56,13.43,46.75,37.23h-36.21c-0.34-7.48-4.93-10.88-11.05-10.88c-4.93-0.17-8.84,2.72-8.84,8.5 c0,17.85,57.63,12.07,57.63,50.49C602.65,110.7,586.33,127.19,557.94,127.19z" class="st0"/><path d="M692.29,32.84h-43.35v19.55h38.25v25.33h-38.25v21.59h43.35V126h-76.67V6.15h76.67V32.84z" class="st0"/><linearGradient id="SVGID_1_" x1="783.519" x2="864.779" y1="66.076" y2="66.076" gradientUnits="userSpaceOnUse"><stop offset="0" style="stop-color:#fff"/><stop offset="1" style="stop-color:#fff;stop-opacity:0"/></linearGradient><path d="M783.52,6.15h81.26v26.52h-47.94v21.08h35.36v25.33h-35.36V126h-33.32V6.15z" class="st1"/><linearGradient id="SVGID_2_" x1="857.757" x2="983.386" y1="66.076" y2="66.076" gradientUnits="userSpaceOnUse"><stop offset="0" style="stop-color:#fff"/><stop offset="1" style="stop-color:#fff;stop-opacity:0"/></linearGradient><path d="M941.74,106.45h-42.5L892.78,126h-35.02L901.45,6.15h38.42L983.39,126H948.2L941.74,106.45z M920.49,42.19 l-12.75,38.76h25.67L920.49,42.19z" class="st2"/><linearGradient id="SVGID_3_" x1="991.563" x2="1102.571" y1="66.076" y2="66.076" gradientUnits="userSpaceOnUse"><stop offset="0" style="stop-color:#fff"/><stop offset="1" style="stop-color:#fff;stop-opacity:0"/></linearGradient><path d="M1102.57,6.15V126h-33.32l-44.37-66.98V126h-33.32V6.15h33.32l44.37,67.83V6.15H1102.57z" class="st3"/><linearGradient id="SVGID_4_" x1="1111.446" x2="1208.345" y1="66.076" y2="66.076" gradientUnits="userSpaceOnUse"><stop offset="0" style="stop-color:#fff"/><stop offset="1" style="stop-color:#fff;stop-opacity:0"/></linearGradient><path d="M1111.45,6.15h96.9v26.52h-31.96V126h-33.32V32.67h-31.62V6.15z" class="st4"/><linearGradient id="SVGID_5_" x1="1196.02" x2="1321.648" y1="66.076" y2="66.076" gradientUnits="userSpaceOnUse"><stop offset="0" style="stop-color:#fff"/><stop offset="1" style="stop-color:#fff;stop-opacity:0"/></linearGradient><path d="M1280,106.45h-42.5l-6.46,19.55h-35.02l43.69-119.85h38.42L1321.65,126h-35.19L1280,106.45z M1258.75,42.19 L1246,80.95h25.67L1258.75,42.19z" class="st5"/><linearGradient id="SVGID_6_" x1="1322.617" x2="1416.116" y1="65.735" y2="65.735" gradientUnits="userSpaceOnUse"><stop offset="0" style="stop-color:#fff"/><stop offset="1" style="stop-color:#fff;stop-opacity:0"/></linearGradient><path d="M1371.41,127.19c-26.69,0-47.43-12.75-48.79-38.42h35.53c0.68,9.01,5.95,12.07,12.07,12.07 c5.95,0,10.54-3.06,10.54-8.67c-0.17-19.21-58.31-10.2-57.8-51.85c0-23.46,19.55-36.04,44.88-36.04 c27.54,0,45.56,13.43,46.75,37.23h-36.21c-0.34-7.48-4.93-10.88-11.05-10.88c-4.93-0.17-8.84,2.72-8.84,8.5 c0,17.85,57.63,12.07,57.63,50.49C1416.12,110.7,1399.8,127.19,1371.41,127.19z" class="st6"/><linearGradient id="SVGID_7_" x1="1412.619" x2="1530.428" y1="66.076" y2="66.076" gradientUnits="userSpaceOnUse"><stop offset="0" style="stop-color:#fff"/><stop offset="1" style="stop-color:#fff;stop-opacity:0"/></linearGradient><path d="M1412.62,6.15h38.08l21.08,46.24l21.08-46.24h37.57l-42.16,81.77V126h-33.49V87.92L1412.62,6.15z" class="st7"/></g><text class="st0" transform="matrix(1 0 0 1 -10 999)" style="font-family:'Poppins-ExtraBold';font-size:170px">FREEUSE</text><text class="st0" transform="matrix(1 0 0 1 773 999)" style="font-family:'Poppins-ExtraBold';font-size:170px">Fantasy</text></svg>