<?xml version="1.0" encoding="utf-8"?>
<!-- Generator: Adobe Illustrator 26.1.0, SVG Export Plug-In . SVG Version: 6.00 Build 0)  -->
<svg version="1.1" id="LESBIANX" xmlns="http://www.w3.org/2000/svg" xmlns:xlink="http://www.w3.org/1999/xlink" x="0px" y="0px"
	 viewBox="0 0 359.6 65.1" style="enable-background:new 0 0 359.6 65.1;" xml:space="preserve">
<style type="text/css">
	.st0{fill:#FFFFFF;}
	.st1{fill:#EC008C;}
</style>
<g>
	<path class="st0" d="M12.1,52.2h28.7v11.2H0V1.6h12.1C12.1,1.6,12.1,52.2,12.1,52.2z"/>
	<path class="st0" d="M85.3,12.5H54.6v13h28.2v10.9H54.6v16h32v10.9H42.8V1.6h42.5V12.5z"/>
	<path class="st0" d="M98.6,44.4c0.1,3.4,1.7,10,12.2,10c5.7,0,12.1-1.5,12.1-8c0-4.8-4.3-6.1-10.5-7.7l-6.2-1.5
		c-9.3-2.3-18.4-4.6-18.4-18.2c0-6.9,3.5-19,22.2-19c17.7,0,22.5,12.4,22.5,20h-11.6c-0.3-2.8-1.3-9.3-11.8-9.3
		c-4.6,0-10.1,1.8-10.1,7.4c0,4.8,3.7,5.9,6.1,6.5l14.1,3.7c7.9,2.1,15.1,5.5,15.1,16.6c0,18.6-17.7,20.2-22.8,20.2
		c-21.1,0-24.7-13-24.7-20.7H98.6z"/>
	<path class="st0" d="M137.3,1.6h28.1c14.2,0,17.8,9.5,17.8,15.8c0,8.9-4.7,11.4-7.1,12.7c7.1,2.8,8.9,8.9,8.9,15
		c0,4.9-1.9,9.6-5,12.7c-3.3,3.4-6.4,5.6-18.3,5.6h-24.5V1.6H137.3z M148.9,25.8h14.2c4.8,0,8.5-2,8.5-6.9c0-5.1-3.4-6.6-8.9-6.6
		h-13.8V25.8z M148.9,52.7h14.8c5.9,0,9.3-2.8,9.3-9c0-5.4-4.3-7.5-8.7-7.5h-15.4L148.9,52.7L148.9,52.7z"/>
	<path class="st0" d="M200.1,63.4H188V1.6h12.1V63.4z"/>
	<path class="st0" d="M213.1,63.4h-12.7L221,1.6h13.9l20.4,61.8h-13.1l-3.7-12.7h-21.3L213.1,63.4z M220.4,40h14.7l-7.2-24.5h-0.2
		L220.4,40z"/>
	<path class="st0" d="M291.9,1.6h11.3v61.8h-12.1l-23.6-44.1h-0.2v44.1H256V1.6h12.7l22.9,43h0.2v-43H291.9z"/>
	<path class="st1" d="M359.6,63.4h-14.7l-11-21.1l-11.7,21.1h-14.1l18.7-31.6L309.2,1.6h14.4l10.3,20l10.5-20h13.9l-17.6,29.7
		L359.6,63.4z"/>
</g>
</svg>
