<svg xmlns="http://www.w3.org/2000/svg" xmlns:xlink="http://www.w3.org/1999/xlink" id="Layer_1" x="0" y="0" version="1.1" viewBox="0 0 2831.4 707.9" style="enable-background:new 0 0 2831.4 707.9" xml:space="preserve"><style type="text/css">.st0{fill-rule:evenodd;clip-rule:evenodd;fill:#a6ce39}.st1{fill:#faa952}</style><path id="Mommy_s_boy_copy" d="M149.8,107.3c122.2,0,5.6,356.8-6.7,393.6c-1.1,2.8-1.7,4.5-1.7,4.5	c0,8.4,3.9,12.3,11.7,12.3c17.3,0,39.6-47.9,59.1-115.4c37.4-129.3,130-287.1,164-287.1c9.5,0,12.8,9.5,12.8,29	c0,75.8-65.3,301-69.7,317.2c-0.3,0.3-0.5,0.7-0.6,1.1c0,8.4,3.3,11.7,11.7,11.7c16.2,0,30.1-30.1,46.3-77.5	c15.1-42.9,90.4-226.9,175.7-307.7c8.9-7.8,15.1-5.6,12.8,1.7c-31.8,95.3-164,483.3-17.9,483.3c31.8,0,51.9-47.4,53.6-51.3	c1.1-4.5-8.9-5.6-12.3,0c-5,11.2-17.3,32.9-37.4,32.9c-88.7,0,16.2-366.3,57.5-467.7c0-18.4-8.4-27.9-25.1-27.9	c-51.3,0-115.5,94.8-167.4,192.3h-5c7.8-43.5,12.8-81.9,12.8-99.8c0-35.7-7.8-59.1-34.6-59.1c-47.4,0-102.7,85.8-149,179.5h-5.6	c7.3-93.7-8.9-178.9-78.7-178.9c-78.7,0-96,73.6-68.1,73.6c11.2,0,12.8-7.8,12.8-7.8C91.2,159.7,100.2,107.3,149.8,107.3z M694.3,230.9c0,0-2.1-12.6-16.3-12.6c-92,0-154,251.7-36.8,251.7c61.5,0,110.9-120.8,112-221.2c8.9,3.4,18.3,5.2,27.9,5.2	c18.9,0,18.9-18.9,18.9-18.9s-6.3,4.2-16.8,4.2c-11.6,0-22.1-4.7-31.5-11c-4.7-28.4-18.4-58.3-32.6-58.3c-10,0-20,12.1-20,18.9	c0,10.5,13.7,35.7,37.3,51v6.3c0,101.4-49.4,204.9-89.4,204.9C579.2,451,624.4,230.9,694.3,230.9z M917.4,400.6	c0,28.3,3.7,41.5,16.3,41.5c4.2,0,7.4-3.2,7.4-6.3c0-10.5,57.3-138.1,103.5-177.4c4.7-4.2,10-4.2,8.9,0.5	c-6.8,24.7-16.8,74.5-16.8,141.2c0,59.3,15.2,102.9,43.1,102.9c15.8,0,26.8-22.6,26.8-22.6s2.1-5.2-3.2-5.2s-8.9,10-19.4,10	s-16.8-14.2-16.8-55.6c0-86.1,27.3-176.9,27.3-176.9c0-15.8-8.9-24.2-25.2-24.2c-40.5,0-89.8,88.2-118.8,149.1h-4.2	c11-71.4,35.7-144.9,35.7-144.9c0-14.7-8.4-24.7-25.2-24.7c-49.9,0-98.8,100.8-127.7,173.2h-4.7c10.5-80.3,34.7-156.4,34.7-156.4	c0-6.8-3.7-11-10-11c-31.5,0-54.1,105-54.1,205.3c0,28.3,3.7,41.5,16.3,41.5c4.2,0,7.4-3.2,7.4-6.3c0-11.6,61.5-174.8,112.4-218.4	c5.8-4.7,11.6-4.2,10,1.6C935.3,261.4,917.4,329.7,917.4,400.6L917.4,400.6z M1246.8,400.9c0,28.3,3.7,41.5,16.3,41.5	c4.2,0,7.3-3.2,7.3-6.3c0-10.5,57.2-138.1,103.4-177.5c4.7-4.2,10-4.2,8.9,0.5c-6.8,24.7-16.8,164.6-16.8,231.2	c0,59.3,15.2,102.9,43.1,102.9c15.8,0,26.8-22.6,26.8-22.6s2.1-5.2-3.2-5.2s-8.9,10-19.4,10s-16.8-14.2-16.8-55.7	c0-86.1,27.3-266.9,27.3-266.9c0-15.8-8.9-24.2-25.2-24.2c-40.4,0-89.8,88.2-118.7,149.1h-4.2c11-71.4,35.7-144.9,35.7-144.9	c0-14.7-8.4-24.7-25.2-24.7c-49.9,0-98.7,100.8-127.6,173.3h-4.7c10.5-80.3,34.7-156.5,34.7-156.5c0-6.8-3.7-11-10-11	c-31.5,0-54.1,105-54.1,205.3c0,28.3,3.7,41.5,16.3,41.5c4.2,0,7.3-3.2,7.3-6.3c0-11.6,61.4-174.8,112.4-218.4	c5.8-4.7,11.6-4.2,10,1.6C1264.7,261.7,1246.8,330,1246.8,400.9L1246.8,400.9z M1415.7,607.3c-3.2-7.3-16.3-3.7-13.2,3.2	c7.9,16.8,22.1,30.4,57.3,30.4c81.5,0,119.4-73,140.4-152.2c44.2,11.6,34.2,51.4,34.2,51.4c20.5,0,34.7-56.7-30-67.7	c5.8-25.7,10.5-52,14.7-76.1c21-123.9,47.8-174.3,47.8-174.3c0-7.3-3.2-12.1-11-12.1c-13.2,0-23.1,12.1-32.6,32	c-5.3,11.6-97.8,202.1-130.4,202.1c-10,0-12.6-11.6-12.6-26.8c0-70.3,53.1-195.8,53.1-195.8c0-6.8-1.6-11.6-8.9-11.6	c-46.8,0-126.2,252.5-37.3,252.5c28.9,0,71-62.5,104.1-121.3h4.7c-3.7,17.8-7.4,36.8-10,54.6c-4.2,23.1-7.9,49.3-13.2,75.1	c-83.6,3.2-135.1,44.1-161.4,84c-3.7,5.2,8.4,8.9,12.1,3.7c28.4-39.4,71.5-70.9,146.2-72.4c-15.8,72.4-44.2,142.8-109.9,142.8	C1432,628.9,1420.4,618.4,1415.7,607.3L1415.7,607.3z M1766.7,97.9c-9.9,0-13.5,7.9-13.5,16.2c0,22-6.2,55-19.2,55	c0,0,0,5.8,7.8,5.8C1774,174.9,1797.3,97.9,1766.7,97.9L1766.7,97.9z M1817,484.6c-50.3,0-9.9-137.8,38.8-165.7	c4.2-2.6,1.6-16.3-4.2-12.6c-58.7,36.8-116.8,195.7-27.2,195.7c42.4,0,83.8-47.9,83.8-111c0-49.4-30.4-118.4-30.4-159.9	c0-50,37.2-64.7,37.2-82.6c0-4.7-2.6-9.5-11-9.5c-48.2,0-86.5,122.1-155.6,223.6c-2.6,3.7,10,11.6,13.6,6.8	c43-62.1,71.2-129.9,96.9-172c-1.1,4.7-1.1,9.5-1.1,14.7c0,42.6,19.4,93.6,19.4,144.7C1877.3,435.1,1843.7,484.6,1817,484.6	L1817,484.6z" class="st0"/><path d="M2538.9,252.9c18.9,0,18.9-18.9,18.9-18.9s-6.3,4.2-16.8,4.2c-11.6,0-22.1-4.7-31.5-11	c-4.7-28.3-18.4-58.3-32.6-58.3c-10,0-19.9,12.1-19.9,18.9c0,10.5,13.6,35.7,37.3,50.9v6.3c0,101.3-49.4,204.8-89.3,204.8	c-67.7,0-22.6-220,47.3-220c0,0-2.1-12.6-16.3-12.6c-91.9,0-153.8,251.5-36.8,251.5c61.4,0,110.8-120.8,111.8-221	C2519.9,251.1,2529.4,252.8,2538.9,252.9z" class="st1"/><path d="M2266.5,208.2c-52.5,0-101.9,99.2-130.2,169.6h-3.7c6.3-47.8,17.3-107.6,29.9-161.2	C2183,128.4,2210.8,67,2210.8,67c0-5.2-2.6-8.4-8.4-8.4c-39.4,0-99.8,178-99.8,353.4c0,28.9,4.2,42,15.8,42c5.8,0,7.9-4.2,7.9-7.9	c0-5.8,77.2-220,135.5-220c55.1,0-10,221.1-56.2,221.1c-31,0-16.3-97.7,26.2-131.3c3.1-2.6-3.1-8.4-7.4-5.8	c-44.6,31.5-79.3,153.8-14.7,153.8C2304.3,463.9,2361.5,208.2,2266.5,208.2z" class="st1"/><g><path d="M2696.8,472.3c-1.4-0.3-2.4-1.7-2-3.1c5.5-24.9,10.1-50.2,14.1-73.5c19.7-116.4,44.5-167.9,47.5-173.8 c0.2-0.4,0.3-0.8,0.3-1.2c-0.2-7-3.4-11.4-11-11.4c-13.1,0-23.1,12.1-32.6,32c-5.2,11.6-97.7,202.2-130.2,202.2 c-10,0-12.6-11.6-12.6-26.8c0-67.8,49.2-186.8,52.8-195.4c0.1-0.3,0.2-0.7,0.2-1c-0.1-6.5-1.8-11-8.9-11 c-46.7,0-126,252.6-37.3,252.6c28.7,0,70.3-61.6,103.2-120c0.5-0.8,1.3-1.3,2.3-1.3l0,0c1.7,0,2.9,1.5,2.6,3.1 c-3.5,16.9-6.9,34.7-9.3,51.5c-4.1,22.5-7.7,48-12.7,73.1c-0.2,1.2-1.3,2-2.5,2.1c-80.6,3.7-131.1,42.8-157.6,81.6 c-0.5,0.7-3.3,5.4-4.2,7.1c-10.5,21.9-11.2,38.7-5.5,53.5c0,0.1,0.1,0.2,0.1,0.2c0.6,1.3,2.3,3.8,2.6,4.3 c8.5,13.5,23.5,23.3,53.6,23.3c80.5,0,118.4-71.4,139.5-149.7c0.4-1.4,1.9-2.2,3.3-1.8c33.5,10.1,33.3,37.4,32.1,47.2 c-0.2,1.9,1.6,3.4,3.4,2.8C2745.9,532.2,2754.2,483.6,2696.8,472.3z M2549.8,628.3c-26.9,0-38.6-9.8-43.6-20.4c0.2,0.7-0.2-0.4,0,0 c-3.9-11.5-4.6-26.1,5.4-46.6c0.7-1.3,1.4-2.6,2.3-3.8c0.7-0.9,1.3-1.9,1.3-1.9c28.4-38.3,71.2-68.6,144.3-70.1 C2643.8,557.9,2615.5,628.3,2549.8,628.3z" class="st1"/></g></svg>