<svg xmlns="http://www.w3.org/2000/svg" xmlns:xlink="http://www.w3.org/1999/xlink" id="Layer_1" x="0" y="0" version="1.1" viewBox="0 0 300 65" style="enable-background:new 0 0 300 65" xml:space="preserve"><style type="text/css">.st0{fill:#29c8ff}.st1{fill:#f456e9}.st2{fill:#fff}</style><g><path d="M257,6.8c0-1.4-0.4-1.9-1.6-1.8c-2.6,0.3-107,15.5-112.2,16.3c-1.9,0.3-2.4,0.5-2.9,1.3c0,0-3.2,6.2-4.6,8.7 c-1.8,3.4-3,5.6-4.8,8.9c-0.3,0.5-1,1.5-1,2.7c0,1.2,1.3,3.5,2.2,5.2c2.6,5,5.2,9.9,7.8,14.9c0.4,0.8,1.1,1.4,2.1,1.3 c5.2-0.7,107-15.5,112.5-16.3c2.3-0.3,2.6-0.7,2.6-3.1C257,43.8,257,8.2,257,6.8z" class="st0"/><path d="M139.8,20.6c-1.8-3.3-3.6-6.7-5.4-10c-1.2-2.3-2.5-4.6-3.8-6.9c-0.7-1.2-0.9-2.8-2.6-3.1c-0.3,0-0.6,0-0.9,0 c-2,0.3-78.2,11.6-81.6,12.2c-1.1,0.2-2.3,0.2-2.6,1.7c0.1,13.3,0.1,26.5,0.2,39.8c0.2,0.9,0.8,1.5,1.7,1.6c0.2,0,0.3,0,0.5,0 c0,0,0.1-0.1,0.1-0.1c3.4-0.5,77.9-11.5,81.2-12c2.2-0.3,2.9-1.2,3.6-2.5c0.3-0.5,5.7-10.5,5.7-10.5s2.6-4.8,3.9-7.4 c0.2-0.4,0.4-0.6,0.4-1.4C140.3,21.2,140,21,139.8,20.6z" class="st1"/><g><path d="M67.2,48.9c-4.9,0.7-9,0.1-12.4-1.9l2.8-10.5c1.1,1,2.3,1.8,3.8,2.2c1.5,0.5,3,0.6,4.4,0.4 c1.5-0.2,2.2-0.8,2.1-1.6c-0.1-0.4-0.3-0.7-0.6-0.9c-0.4-0.2-1-0.4-1.9-0.6c-2.9-0.7-5.2-1.8-6.9-3.2c-1.7-1.4-2.7-3.4-3.1-6.2 c-0.5-3.5,0.2-6.5,2-9c1.9-2.5,4.9-4,8.9-4.6c4.5-0.7,8.7-0.2,12.6,1.4l-4.7,9.6c-2.1-1.3-4.3-1.8-6.6-1.5 c-1.1,0.2-1.6,0.6-1.5,1.3c0.1,0.4,0.3,0.7,0.6,0.9c0.2,0.1,0.4,0.2,0.8,0.3c0.4,0.1,0.8,0.3,1.3,0.4c0.6,0.2,1.1,0.3,1.6,0.5 c0.5,0.1,0.9,0.3,1.3,0.4c0.4,0.2,0.8,0.4,1.3,0.6c0.5,0.3,1,0.5,1.5,0.9c2.2,1.4,3.6,3.9,4.1,7.3c0.5,3.5-0.3,6.6-2.5,9.1 C74,46.8,71,48.3,67.2,48.9z" class="st2"/><path d="M93.2,9.9l-0.6,34.4L82,45.8l0.7-34.4L93.2,9.9z" class="st2"/><path d="M108.2,42.8c-4.9,0.7-9,0.1-12.4-1.9l2.8-10.5c1.1,1,2.3,1.8,3.8,2.2c1.5,0.5,3,0.6,4.4,0.4 c1.5-0.2,2.2-0.8,2.1-1.6c-0.1-0.4-0.3-0.7-0.6-0.9c-0.4-0.2-1-0.4-1.9-0.6c-2.9-0.7-5.2-1.8-6.9-3.2c-1.7-1.4-2.7-3.4-3.1-6.2 c-0.5-3.5,0.2-6.5,2-9c1.9-2.5,4.9-4,8.9-4.6c4.5-0.7,8.7-0.2,12.6,1.4l-4.7,9.6c-2.1-1.3-4.3-1.8-6.6-1.5 c-1.1,0.2-1.6,0.6-1.5,1.3c0.1,0.4,0.3,0.7,0.6,0.9c0.2,0.1,0.4,0.2,0.8,0.3c0.4,0.1,0.8,0.3,1.3,0.4c0.6,0.2,1.1,0.3,1.6,0.5 c0.5,0.1,0.9,0.3,1.3,0.4c0.4,0.2,0.8,0.4,1.3,0.6c0.5,0.3,1,0.5,1.5,0.9c2.2,1.4,3.6,3.9,4.1,7.3c0.5,3.5-0.3,6.6-2.5,9.1 C115,40.8,112,42.3,108.2,42.8z" class="st2"/></g><g><path d="M154.9,56.5c-4,0.6-7.5,0-10.5-1.7l2.1-8c1,0.9,2.1,1.6,3.4,1.9c1.3,0.4,2.6,0.5,3.9,0.3 c0.8-0.1,1.5-0.4,2-0.8c0.5-0.4,0.7-0.9,0.6-1.4c-0.1-0.5-0.3-0.9-0.8-1.1c-0.4-0.2-1.2-0.5-2.2-0.7c-2.5-0.6-4.4-1.5-5.8-2.7 c-1.4-1.2-2.3-2.9-2.6-5.2c-0.4-2.9,0.2-5.4,1.8-7.5c1.6-2.1,4.1-3.4,7.5-3.9c3.8-0.6,7.3-0.1,10.5,1.2l-3.6,7.4 c-1.9-1.1-3.8-1.5-5.9-1.3c-1.5,0.2-2.2,0.8-2,1.8c0.1,0.5,0.3,0.9,0.7,1.1c0.4,0.2,1.1,0.5,2.2,0.8c0.4,0.1,0.8,0.2,1.1,0.3 c0.3,0.1,0.6,0.2,0.9,0.2c0.5,0.1,1.2,0.4,2,0.9c0.8,0.4,1.5,0.9,2,1.4c0.5,0.5,1,1.3,1.5,2.1c0.5,0.9,0.8,1.9,0.9,3.1 c0.4,3-0.3,5.6-2.1,7.7C160.6,54.8,158.1,56.1,154.9,56.5z" class="st2"/><path d="M195.3,20.5l8.3-1.2l-6.8,30.4l-9.4,1.4l-2.1-9.7c-0.1-0.4-0.2-1-0.3-1.7c-0.1-0.7-0.3-1.6-0.4-2.6 c-0.1-0.5-0.2-1-0.2-1.4c-0.1-0.4-0.1-0.8-0.2-1.1c-0.3,1.6-0.5,2.9-0.7,4c-0.2,1.1-0.4,1.9-0.6,2.5l-3.1,11l-9.4,1.4l-5-28.7 l8.7-1.3l1.2,14.4c0,0.3,0,0.6,0.1,1c0,0.4,0.1,0.9,0.1,1.4c0,0.5,0,1,0.1,1.4c0,0.4,0,0.7,0.1,1c0.1-0.5,0.3-1.2,0.5-2 c0.2-0.8,0.4-1.8,0.7-2.9l4-15.2l7.7-1.1l3,13.3c0.2,0.9,0.3,1.9,0.5,2.8c0.2,0.9,0.3,1.9,0.4,2.9c0.4-2.1,0.6-3.8,0.8-5.2 L195.3,20.5z" class="st2"/><path d="M218.3,46.5l-1.2-5.1l-6.9,1l-1.1,5.4l-8,1.2l8.3-30.7l9.4-1.4l8,28.3L218.3,46.5z M211.7,35.6l4-0.6l-2-8.9 L211.7,35.6z" class="st2"/><path d="M241.1,13.8c5.9-0.9,9.3,1.6,10.2,7.5c0.5,3.6-0.2,6.7-2.2,9.2c-2,2.5-5,4.1-9,4.6l-3.4,0.5l-0.2,8.3 l-8.1,1.2l0.6-29.5L241.1,13.8z M239,28c1.4-0.2,2.4-0.7,3.1-1.5c0.7-0.8,0.9-1.8,0.7-3c-0.2-1.7-1.3-2.4-3.2-2.1l-2.7,0.4 l-0.1,6.5L239,28z" class="st2"/></g></g></svg>